<?xml version="1.0" encoding="UTF-8"?><svg id="uuid-51ba2646-1f0f-4a2d-8aa5-7ee62048dd80" xmlns="http://www.w3.org/2000/svg" viewBox="0 0 282.61 198.02"><defs><style>.uuid-33a205ab-fb1a-41f8-ae18-bddab8e8c6c8{fill:#c7c7cc;}.uuid-33a205ab-fb1a-41f8-ae18-bddab8e8c6c8,.uuid-8702045d-6f12-48f7-9f8e-7bef601bfd15,.uuid-0edc4457-4a9e-404a-ac2b-bcb6b99512d4{stroke-width:0px;}.uuid-8702045d-6f12-48f7-9f8e-7bef601bfd15{fill:#e5e5ea;}.uuid-0edc4457-4a9e-404a-ac2b-bcb6b99512d4{fill:#f4f4ff;}</style></defs><path class="uuid-33a205ab-fb1a-41f8-ae18-bddab8e8c6c8" d="m278.23,56.71h-4.38c-58.72,0-108.52,38.18-125.93,91.08-2.14,6.51-11.09,6.51-13.23,0C117.28,94.9,67.48,56.71,8.76,56.71h-4.38c-2.42,0-4.38,1.96-4.38,4.38v4.38c0,73.2,59.34,132.55,132.55,132.55h17.52c73.2,0,132.55-59.34,132.55-132.55v-4.38c0-2.42-1.96-4.38-4.38-4.38Z"/><path class="uuid-8702045d-6f12-48f7-9f8e-7bef601bfd15" d="m51.15,56.61c14.22,4.52,27.64,11.32,39.79,20.23,2.17,1.58,4.3,3.23,6.39,4.97,3.49,2.86,6.86,5.92,10.1,9.16,15.65,15.65,27.13,34.37,33.87,54.8,6.74-20.43,18.22-39.15,33.87-54.8,3.24-3.24,6.61-6.3,10.1-9.16,2.09-1.74,4.22-3.39,6.39-4.97,12.14-8.9,25.55-15.7,39.76-20.22-1.37-11.43-4.25-22.86-8.77-34.05l-1.64-4.06c-.69-1.71-2.33-2.74-4.07-2.74-.54,0-1.1.1-1.64.32l-4.06,1.64c-11.92,4.82-22.76,11.18-32.38,18.76-1.9,1.49-3.76,3.04-5.57,4.63-10.79,9.52-19.85,20.65-26.93,32.86-2.74,4.71-9.41,4.78-12.15.07-6.81-11.69-15.36-22.42-25.47-31.75-1.79-1.64-3.62-3.24-5.5-4.78-10.55-8.75-22.6-16.03-35.98-21.43-.54-.22-1.09-.32-1.64-.32-1.73,0-3.37,1.03-4.06,2.74l-1.64,4.06c-4.52,11.18-7.4,22.62-8.77,34.04Z"/><path class="uuid-0edc4457-4a9e-404a-ac2b-bcb6b99512d4" d="m112,35.82c11.12,9.95,20.66,21.63,28.26,34.71,7.89-13.63,17.95-25.71,29.74-35.82.04-.04.08-.07.13-.11-5.92-10.85-13.47-21.05-22.65-30.23l-3.09-3.09c-1.71-1.71-4.5-1.71-6.21,0l-3.09,3.09c-9.49,9.49-17.23,20.06-23.24,31.31.05.04.1.09.15.13Z"/></svg>